<svg width="30" height="30" viewBox="0 0 39 39" fill="none" xmlns="http://www.w3.org/2000/svg">
<path d="M34.3938 12.9479C33.9534 12.4977 33.3523 12.2409 32.7225 12.2339C32.0928 12.227 31.4861 12.4704 31.0358 12.9107L19.1501 24.536L7.52474 12.6503C7.08163 12.2128 6.48438 11.9667 5.86165 11.9653C5.23891 11.9638 4.6405 12.2069 4.1953 12.6424C3.75011 13.0778 3.49376 13.6707 3.48145 14.2933C3.46914 14.9159 3.70187 15.5185 4.12951 15.9712L17.4153 29.5545C17.8557 30.0046 18.4569 30.2614 19.0866 30.2684C19.7163 30.2754 20.323 30.032 20.7733 29.5917L34.3567 16.3059C34.8068 15.8655 35.0636 15.2643 35.0706 14.6346C35.0776 14.0049 34.8341 13.3981 34.3938 12.9479Z" fill="#374C08"/>
</svg>
