<svg width="35" height="35" viewBox="0 0 101 100" fill="none" xmlns="http://www.w3.org/2000/svg">
<path d="M16.8333 75H84.1667C86.4813 75 88.375 73.125 88.375 70.8333C88.375 68.5417 86.4813 66.6667 84.1667 66.6667H16.8333C14.5188 66.6667 12.625 68.5417 12.625 70.8333C12.625 73.125 14.5188 75 16.8333 75ZM16.8333 54.1667H84.1667C86.4813 54.1667 88.375 52.2917 88.375 50C88.375 47.7083 86.4813 45.8333 84.1667 45.8333H16.8333C14.5188 45.8333 12.625 47.7083 12.625 50C12.625 52.2917 14.5188 54.1667 16.8333 54.1667ZM12.625 29.1667C12.625 31.4583 14.5188 33.3333 16.8333 33.3333H84.1667C86.4813 33.3333 88.375 31.4583 88.375 29.1667C88.375 26.875 86.4813 25 84.1667 25H16.8333C14.5188 25 12.625 26.875 12.625 29.1667Z" fill="#374C08"/>
</svg>
